<?xml version="1.0" encoding="utf-8"?><!DOCTYPE svg PUBLIC "-//W3C//DTD SVG 1.1//EN" "http://www.w3.org/Graphics/SVG/1.1/DTD/svg11.dtd"><svg version="1.1" xmlns="http://www.w3.org/2000/svg" xmlns:xlink="http://www.w3.org/1999/xlink" x="0px" y="0px" viewBox="0 0 100 101.36250000000001" enable-background="new 0 0 100 81.09" xml:space="preserve"><path fill="#010101" d="M50,31.931c-9.312,0.01-16.845,7.544-16.858,16.859C33.156,58.098,40.688,65.626,50,65.644
	c9.306-0.019,16.839-7.547,16.859-16.854C66.839,39.475,59.306,31.941,50,31.931z M95.042,17.956H77.838L76.506,2.629
	C76.506,1.182,75.328,0,73.871,0H26.129c-1.457,0-2.631,1.182-2.631,2.629l-1.333,15.326h-2.964v-3.429c0-1.2-0.974-2.17-2.174-2.17
	h-9.73c-1.2,0-2.174,0.971-2.174,2.17v3.429H4.958C2.223,17.956,0,20.17,0,22.906v53.227c0,2.741,2.222,4.958,4.958,4.958h90.084
	c2.738,0,4.958-2.217,4.958-4.958V22.906C100,20.17,97.78,17.956,95.042,17.956z M12.185,38.792c-3.4,0-6.157-2.758-6.157-6.162
	c0-3.401,2.756-6.158,6.157-6.158c3.405,0,6.157,2.757,6.157,6.158C18.342,36.034,15.59,38.792,12.185,38.792z M37.15,6.793h25.697
	c1.584,0,2.864,1.287,2.864,2.862c0,1.583-1.282,2.866-2.864,2.866H37.15c-1.575,0-2.859-1.284-2.859-2.866
	C34.291,8.081,35.575,6.793,37.15,6.793z M50,73.279c-13.532,0-24.49-10.961-24.497-24.489C25.509,35.254,36.468,24.292,50,24.292
	c13.528,0,24.489,10.962,24.493,24.497C74.489,62.318,63.528,73.279,50,73.279z"/><text x="0" y="96.09" fill="#000000" font-size="5px" font-weight="bold" font-family="'Helvetica Neue', Helvetica, Arial-Unicode, Arial, Sans-serif">Created by iconoci</text><text x="0" y="101.09" fill="#000000" font-size="5px" font-weight="bold" font-family="'Helvetica Neue', Helvetica, Arial-Unicode, Arial, Sans-serif">from the Noun Project</text></svg>