<?xml version="1.0" encoding="UTF-8" standalone="no"?>
<svg
   width="297mm"
   height="210mm"
   viewBox="0 0 297 210"
   version="1.1"
   id="svg1"
   sodipodi:docname="shape_print.svg"
   inkscape:version="1.3.2 (1:1.3.2+202311252150+091e20ef0f)"
   xmlns:inkscape="http://www.inkscape.org/namespaces/inkscape"
   xmlns:sodipodi="http://sodipodi.sourceforge.net/DTD/sodipodi-0.dtd"
   xmlns="http://www.w3.org/2000/svg"
   xmlns:svg="http://www.w3.org/2000/svg"
   xmlns:rdf="http://www.w3.org/1999/02/22-rdf-syntax-ns#"
   xmlns:cc="http://creativecommons.org/ns#"
   xmlns:dc="http://purl.org/dc/elements/1.1/">
  <defs
     id="defs1">
    <rect
       x="331.91501"
       y="208.93042"
       width="65.91391"
       height="51.618397"
       id="rect13" />
    <clipPath
       clipPathUnits="userSpaceOnUse"
       id="clipPath1">
      <rect
         style="fill:none;stroke:#000000;stroke-width:0.499996;stroke-linecap:round"
         id="rect2"
         width="238.03967"
         height="408.53708"
         x="-41.962063"
         y="28.58247" />
    </clipPath>
    <clipPath
       clipPathUnits="userSpaceOnUse"
       id="clipPath5">
      <rect
         style="fill:none;stroke:#000000;stroke-width:0.499996;stroke-linecap:round"
         id="rect6"
         width="272.88"
         height="200.87231"
         x="-66.848381"
         y="236.21797" />
    </clipPath>
    <clipPath
       clipPathUnits="userSpaceOnUse"
       id="clipPath8">
      <rect
         style="fill:none;stroke:#000000;stroke-width:0.499996;stroke-linecap:round"
         id="rect9"
         width="279.5665"
         height="206.25044"
         x="4.2789626"
         y="5.6983409" />
    </clipPath>
    <clipPath
       clipPathUnits="userSpaceOnUse"
       id="clipPath10">
      <rect
         style="fill:none;stroke:#000000;stroke-width:0.499996;stroke-linecap:round"
         id="rect11"
         width="286.99237"
         height="200.87231"
         x="-3.1469231"
         y="207.07065" />
    </clipPath>
  </defs>
  <sodipodi:namedview
     id="namedview1"
     pagecolor="#ffffff"
     bordercolor="#666666"
     borderopacity="1.0"
     inkscape:showpageshadow="2"
     inkscape:pageopacity="0.0"
     inkscape:pagecheckerboard="0"
     inkscape:deskcolor="#d1d1d1"
     inkscape:document-units="mm"
     inkscape:zoom="0.79600735"
     inkscape:cx="596.72816"
     inkscape:cy="435.29749"
     inkscape:window-width="1920"
     inkscape:window-height="997"
     inkscape:window-x="0"
     inkscape:window-y="28"
     inkscape:window-maximized="1"
     inkscape:current-layer="svg1" />
  <title
     id="title1">Exported SVG</title>
  <style
     id="style1"><![CDATA[
polygon {
shape-rendering:crispEdges;
stroke-width:0.470000;
}
.s0 {
stroke:#000000;
stroke-width:0.385219;
stroke-linecap:round;
stroke-linejoin:round;
fill:none;
}
.s1 {
stroke:#000000;
stroke-width:0.385219;
stroke-linecap:round;
stroke-linejoin:round;
fill:none;
}
.s2 {
stroke:#19b219;
stroke-width:0.385219;
stroke-linecap:round;
stroke-linejoin:round;
fill:none;
}
.s3 {
stroke:#7f4c00;
stroke-width:0.385219;
stroke-linecap:round;
stroke-linejoin:round;
fill:none;
}
.s4 {
stroke:#00cc00;
stroke-width:0.385219;
stroke-linecap:round;
stroke-linejoin:round;
fill:none;
}
.s5 {
stroke:#000000;
stroke-width:0.256813;
stroke-linecap:round;
stroke-linejoin:round;
fill:none;
}
.s6 {
stroke:#ff19ff;
stroke-width:0.256813;
stroke-linecap:round;
stroke-linejoin:round;
fill:none;
}
.s7 {
stroke:#ff0000;
stroke-width:0.385219;
stroke-linecap:round;
stroke-linejoin:round;
fill:none;
}
.s8 {
stroke:#ffff00;
stroke-width:0.385219;
stroke-linecap:round;
stroke-linejoin:round;
fill:none;
}
.s9 {
stroke:#001919;
stroke-width:0.256813;
stroke-linecap:round;
stroke-linejoin:round;
fill:none;
}
.sa {
stroke:#006666;
stroke-width:0.256813;
stroke-linecap:round;
stroke-linejoin:round;
fill:none;
}
.sb {
stroke:#00ffff;
stroke-width:0.256813;
stroke-linecap:round;
stroke-linejoin:round;
fill:none;
}
.sc {
stroke:#ff0000;
stroke-width:2.054500;
stroke-linecap:round;
stroke-linejoin:round;
fill:none;
}
.sd {
stroke:#191919;
stroke-width:0.256813;
stroke-linecap:round;
stroke-linejoin:round;
fill:none;
}
.se {
stroke:#000000;
stroke-width:0.513625;
stroke-linecap:round;
stroke-linejoin:round;
stroke-dasharray:3.852,3.852;
fill:none;
}
.sf {
stroke:#000000;
stroke-width:0.770438;
stroke-linecap:round;
stroke-linejoin:round;
fill:none;
}
]]></style>
  <metadata
     id="metadata1">
    <rdf:RDF>
      <cc:Work
         rdf:about="">
        <dc:title>Exported SVG</dc:title>
      </cc:Work>
    </rdf:RDF>
  </metadata>
  <g
     id="g11"
     transform="translate(-20.993621,-0.06828724)">
    <g
       id="g7"
       clip-path="url(#clipPath8)"
       transform="matrix(1,0,0,-1,15.012353,211.09999)">
      <path
         d="m -122.21217,43.147 a 115,115 0 0 0 -143.541,50.204 50.375,50.375 0 0 0 -6.459,24.678 v 160.234 a 25,25 0 0 0 17.347,23.8 l 96.653,31.078 a 40,40 0 0 1 20.941,15.747 l 41.874002,62.222 a 40,40 0 0 0 33.185,17.667 h 20 20 a 40,40 0 0 0 33.185,-17.667 l 41.874,-62.222 a 40,40 0 0 1 20.941,-15.747 l 96.652998,-31.078 a 25,25 0 0 0 17.347,-23.8 V 118.029 a 50.375,50.375 0 0 0 -6.459,-24.678 115,115 0 0 0 -143.540998,-50.204 212.539,212.539 0 0 1 -160.000002,0"
         class="s1"
         id="path1"
         clip-path="url(#clipPath1)"
         transform="translate(52.677515,-24.904318)" />
      <rect
         style="fill:none;stroke:#000000;stroke-width:0.499999;stroke-linecap:round"
         id="rect7"
         width="272.88"
         height="200.87231"
         x="10.965451"
         y="5.6983409" />
    </g>
    <g
       id="g10"
       clip-path="url(#clipPath10)"
       transform="translate(15.012353,-202.57123)">
      <g
         id="g8">
        <path
           d="m -122.21217,43.147 a 115,115 0 0 0 -143.541,50.204 50.375,50.375 0 0 0 -6.459,24.678 v 160.234 a 25,25 0 0 0 17.347,23.8 l 96.653,31.078 a 40,40 0 0 1 20.941,15.747 l 41.874002,62.222 a 40,40 0 0 0 33.185,17.667 h 20 20 a 40,40 0 0 0 33.185,-17.667 l 41.874,-62.222 a 40,40 0 0 1 20.941,-15.747 l 96.652998,-31.078 a 25,25 0 0 0 17.347,-23.8 V 118.029 a 50.375,50.375 0 0 0 -6.459,-24.678 115,115 0 0 0 -143.540998,-50.204 212.539,212.539 0 0 1 -160.000002,0"
           class="s1"
           id="path8"
           clip-path="url(#clipPath1)"
           transform="translate(52.677515,-24.904318)" />
        <rect
           style="fill:none;stroke:#000000;stroke-width:0.499999;stroke-linecap:round"
           id="rect8"
           width="272.88"
           height="200.87231"
           x="10.965451"
           y="5.6983409" />
      </g>
      <rect
         style="fill:none;stroke:#000000;stroke-width:0.499999;stroke-linecap:round"
         id="rect4"
         width="272.88"
         height="200.87231"
         x="10.965451"
         y="207.07065" />
    </g>
  </g>
  <rect
     style="fill:none;stroke:#000000;stroke-width:0.499999;stroke-linecap:round"
     id="rect12"
     width="50"
     height="50"
     x="78.724113"
     y="40.139782" />
  <text
     xml:space="preserve"
     transform="scale(0.26458333)"
     id="text12"
     style="font-size:24px;line-height:1.25;font-family:Hack;-inkscape-font-specification:'Hack, Normal';font-variant-ligatures:none;text-align:center;letter-spacing:0px;word-spacing:0px;white-space:pre;shape-inside:url(#rect13)"><tspan
       x="357.64648"
       y="230.16406"
       id="tspan1">5</tspan></text>
</svg>
